<svg width="180" height="43" viewBox="0 0 180 43" fill="none" xmlns="http://www.w3.org/2000/svg">
<path d="M8.06217 21.5C10.536 21.5 12.5413 19.4946 12.5413 17.0208C12.5413 14.547 10.536 12.5416 8.06217 12.5416C5.5884 12.5416 3.58301 14.547 3.58301 17.0208C3.58301 19.4946 5.5884 21.5 8.06217 21.5Z" fill="#00ACC1"/>
<path d="M16.1254 14.3333C18.5992 14.3333 20.6046 12.3279 20.6046 9.85417C20.6046 7.38039 18.5992 5.375 16.1254 5.375C13.6516 5.375 11.6462 7.38039 11.6462 9.85417C11.6462 12.3279 13.6516 14.3333 16.1254 14.3333Z" fill="#00ACC1"/>
<path d="M26.8747 14.3333C29.3485 14.3333 31.3538 12.3279 31.3538 9.85417C31.3538 7.38039 29.3485 5.375 26.8747 5.375C24.4009 5.375 22.3955 7.38039 22.3955 9.85417C22.3955 12.3279 24.4009 14.3333 26.8747 14.3333Z" fill="#00ACC1"/>
<path d="M34.9372 21.5C37.411 21.5 39.4163 19.4946 39.4163 17.0208C39.4163 14.547 37.411 12.5416 34.9372 12.5416C32.4634 12.5416 30.458 14.547 30.458 17.0208C30.458 19.4946 32.4634 21.5 34.9372 21.5Z" fill="#00ACC1"/>
<path d="M31.0672 26.6242C29.5085 24.7967 28.2006 23.2379 26.6239 21.4104C25.7997 20.4429 24.7427 19.4754 23.4885 19.0454C23.2914 18.9738 23.0943 18.92 22.8972 18.8842C22.4493 18.8125 21.9656 18.8125 21.4997 18.8125C21.0339 18.8125 20.5502 18.8125 20.0843 18.9021C19.8872 18.9379 19.6902 18.9917 19.4931 19.0633C18.2389 19.4933 17.1997 20.4608 16.3577 21.4283C14.7989 23.2558 13.491 24.8146 11.9143 26.6421C9.56725 28.9892 6.68267 31.5871 7.22017 35.2242C7.73975 37.0517 9.04767 38.8612 11.3947 39.3808C12.7027 39.6496 16.8772 38.5925 21.3206 38.5925H21.6431C26.0864 38.5925 30.261 39.6317 31.5689 39.3808C33.916 38.8612 35.2239 37.0337 35.7435 35.2242C36.2989 31.5692 33.4143 28.9712 31.0672 26.6242Z" fill="#00ACC1"/>
<path d="M70.1688 20.9327C70.1688 21.807 69.9681 22.6097 69.5668 23.3407C69.1654 24.0574 68.5491 24.6379 67.7178 25.0822C66.8864 25.5265 65.8544 25.7487 64.6218 25.7487H62.3428V31.1667H58.6663V16.0737H64.6218C65.8258 16.0737 66.8434 16.2815 67.6748 16.6972C68.5061 17.1129 69.1296 17.6862 69.5453 18.4172C69.9609 19.1482 70.1688 19.9867 70.1688 20.9327ZM64.3423 22.8247C65.0446 22.8247 65.5678 22.6599 65.9118 22.3302C66.2558 22.0005 66.4278 21.5347 66.4278 20.9327C66.4278 20.3307 66.2558 19.8649 65.9118 19.5352C65.5678 19.2055 65.0446 19.0407 64.3423 19.0407H62.3428V22.8247H64.3423ZM75.7593 19.0192V22.0722H80.6828V24.9102H75.7593V28.2212H81.3278V31.1667H72.0828V16.0737H81.3278V19.0192H75.7593ZM94.5721 16.0737V19.0192H90.5731V31.1667H86.8966V19.0192H82.8976V16.0737H94.5721ZM117.186 16.0737L113.252 31.1667H108.801L106.393 21.2337L103.899 31.1667H99.4487L95.6217 16.0737H99.5562L101.728 27.0602L104.415 16.0737H108.457L111.037 27.0602L113.23 16.0737H117.186ZM122.707 16.0737V31.1667H119.03V16.0737H122.707ZM136.228 16.0737V19.0192H132.229V31.1667H128.553V19.0192H124.554V16.0737H136.228ZM148.931 16.0737V19.0192H144.932V31.1667H141.255V19.0192H137.256V16.0737H148.931ZM154.453 19.0192V22.0722H159.376V24.9102H154.453V28.2212H160.021V31.1667H150.776V16.0737H160.021V19.0192H154.453ZM170.105 31.1667L166.966 25.4692H166.084V31.1667H162.408V16.0737H168.578C169.768 16.0737 170.779 16.2815 171.61 16.6972C172.456 17.1129 173.086 17.6862 173.502 18.4172C173.918 19.1339 174.125 19.9365 174.125 20.8252C174.125 21.8285 173.839 22.7244 173.265 23.5127C172.706 24.301 171.875 24.86 170.771 25.1897L174.254 31.1667H170.105ZM166.084 22.8677H168.363C169.037 22.8677 169.539 22.7029 169.868 22.3732C170.212 22.0435 170.384 21.5777 170.384 20.9757C170.384 20.4024 170.212 19.9509 169.868 19.6212C169.539 19.2915 169.037 19.1267 168.363 19.1267H166.084V22.8677Z" fill="#00ACC1"/>
</svg>
