<svg width="32" height="32" viewBox="0 0 32 32" fill="none" xmlns="http://www.w3.org/2000/svg">
<path d="M18.281 11.8065C18.281 12.911 19.1764 13.8065 20.281 13.8065H30C31.1046 13.8065 32 14.7019 32 15.8065V16.2581C32 17.3626 31.1046 18.2581 30 18.2581H20.281C19.1764 18.2581 18.281 19.1535 18.281 20.2581V30C18.281 31.1046 17.3855 32 16.281 32H15.6524C14.5479 32 13.6524 31.1046 13.6524 30V20.2581C13.6524 19.1535 12.757 18.2581 11.6524 18.2581H2C0.895432 18.2581 0 17.3626 0 16.2581V15.8065C0 14.7019 0.895431 13.8065 2 13.8065H11.6524C12.757 13.8065 13.6524 12.911 13.6524 11.8065V2C13.6524 0.895429 14.5479 0 15.6524 0H16.281C17.3855 0 18.281 0.895431 18.281 2V11.8065Z" fill="white"/>
</svg>
